<svg xmlns="http://www.w3.org/2000/svg" style="display:none;">
<!-- Exercise quick-reference illustrations — Program v1 Phase 1 machine circuit.
     Self-contained line-art (no external image dependency): simple, consistent
     stroke style matching lucide-sprite.svg's icon language. If real photos
     become available later (verified URLs), these can be swapped 1:1 by
     changing the <img>/<use> in fitness.html — this file can stay as fallback. -->

<symbol id="ex-leg-press" viewBox="0 0 64 64">
  <circle cx="14" cy="14" r="5" fill="none" stroke="currentColor" stroke-width="2.5"/>
  <path d="M14 19 L16 34 L26 40" fill="none" stroke="currentColor" stroke-width="2.5" stroke-linecap="round"/>
  <path d="M16 34 L10 44" fill="none" stroke="currentColor" stroke-width="2.5" stroke-linecap="round"/>
  <path d="M26 40 L38 40 L38 34" fill="none" stroke="currentColor" stroke-width="2.5" stroke-linecap="round" stroke-linejoin="round"/>
  <rect x="38" y="24" width="6" height="26" fill="none" stroke="currentColor" stroke-width="2.5"/>
  <path d="M46 26 L52 20 M46 36 L52 30" fill="none" stroke="currentColor" stroke-width="2.5" stroke-linecap="round"/>
</symbol>

<symbol id="ex-chest-press" viewBox="0 0 64 64">
  <circle cx="16" cy="14" r="5" fill="none" stroke="currentColor" stroke-width="2.5"/>
  <path d="M16 19 L16 40" fill="none" stroke="currentColor" stroke-width="2.5" stroke-linecap="round"/>
  <path d="M16 22 L28 22 M16 22 L44 22" fill="none" stroke="currentColor" stroke-width="2.5" stroke-linecap="round"/>
  <path d="M16 40 L10 52 M16 40 L22 52" fill="none" stroke="currentColor" stroke-width="2.5" stroke-linecap="round"/>
  <path d="M44 22 L52 22" fill="none" stroke="currentColor" stroke-width="2.5" stroke-linecap="round"/>
  <path d="M50 16 L50 28" fill="none" stroke="currentColor" stroke-width="2.5" stroke-linecap="round"/>
</symbol>

<symbol id="ex-seated-row" viewBox="0 0 64 64">
  <circle cx="44" cy="14" r="5" fill="none" stroke="currentColor" stroke-width="2.5"/>
  <path d="M44 19 L44 40 L38 52 M44 40 L50 52" fill="none" stroke="currentColor" stroke-width="2.5" stroke-linecap="round"/>
  <path d="M44 24 L22 24" fill="none" stroke="currentColor" stroke-width="2.5" stroke-linecap="round"/>
  <path d="M16 24 L16 14" fill="none" stroke="currentColor" stroke-width="2.5" stroke-linecap="round"/>
  <path d="M12 20 L16 24 L20 20" fill="none" stroke="currentColor" stroke-width="2.5" stroke-linecap="round" stroke-linejoin="round"/>
</symbol>

<symbol id="ex-lat-pulldown" viewBox="0 0 64 64">
  <circle cx="32" cy="12" r="5" fill="none" stroke="currentColor" stroke-width="2.5"/>
  <path d="M32 17 L32 44 L26 54 M32 44 L38 54" fill="none" stroke="currentColor" stroke-width="2.5" stroke-linecap="round"/>
  <path d="M16 8 L48 8" fill="none" stroke="currentColor" stroke-width="2.5" stroke-linecap="round"/>
  <path d="M16 8 L26 22 M48 8 L38 22" fill="none" stroke="currentColor" stroke-width="2.5" stroke-linecap="round"/>
  <path d="M32 8 L32 4" fill="none" stroke="currentColor" stroke-width="2" stroke-dasharray="2 2"/>
</symbol>

<symbol id="ex-leg-curl" viewBox="0 0 64 64">
  <circle cx="16" cy="14" r="5" fill="none" stroke="currentColor" stroke-width="2.5"/>
  <path d="M16 19 L16 34" fill="none" stroke="currentColor" stroke-width="2.5" stroke-linecap="round"/>
  <path d="M16 20 L34 20" fill="none" stroke="currentColor" stroke-width="2.5" stroke-linecap="round"/>
  <path d="M16 34 L38 34 L38 28" fill="none" stroke="currentColor" stroke-width="2.5" stroke-linecap="round" stroke-linejoin="round"/>
  <path d="M38 28 L48 28 L52 22" fill="none" stroke="currentColor" stroke-width="2.5" stroke-linecap="round" stroke-linejoin="round"/>
  <path d="M48 24 L52 22 L50 27" fill="none" stroke="currentColor" stroke-width="2" stroke-linecap="round" stroke-linejoin="round"/>
</symbol>

<symbol id="ex-dead-bug" viewBox="0 0 64 64">
  <line x1="8" y1="52" x2="56" y2="52" stroke="currentColor" stroke-width="2" stroke-dasharray="2 3"/>
  <circle cx="20" cy="40" r="5" fill="none" stroke="currentColor" stroke-width="2.5"/>
  <path d="M20 45 L32 48 L44 45" fill="none" stroke="currentColor" stroke-width="2.5" stroke-linecap="round"/>
  <path d="M32 48 L20 34 M32 48 L48 30" fill="none" stroke="currentColor" stroke-width="2.5" stroke-linecap="round"/>
  <path d="M32 48 L18 52 M32 48 L48 56" fill="none" stroke="currentColor" stroke-width="2.5" stroke-linecap="round"/>
</symbol>
</svg>
