<svg xmlns="http://www.w3.org/2000/svg" style="display:none">
<!-- Self-hosted icon sprite (Phase 2.2, per design/ICON-MAP.md). Hand-authored in the
     Lucide stroke style (24x24 viewBox, stroke=currentColor, fill=none, stroke-width=2,
     round caps/joins) since raw SVG fetch from unpkg/jsdelivr/raw.githubusercontent was
     not retrievable in this environment (web_fetch strips non-HTML payloads). Visually
     consistent with the Lucide set; swap in the official lucide-static files anytime by
     replacing the <symbol> bodies below — ids/usage (#icon-name) won't need to change. -->
<defs>

<symbol id="icon-zap" viewBox="0 0 24 24">
  <path d="M13 2 3 14h7l-1 8 10-12h-7l1-8z" stroke="currentColor" stroke-width="2" fill="none" stroke-linecap="round" stroke-linejoin="round"/>
</symbol>

<symbol id="icon-brain" viewBox="0 0 24 24">
  <path d="M9 4a3 3 0 0 0-3 3v1a3 3 0 0 0-2 3 3 3 0 0 0 1 5v1a3 3 0 0 0 3 3 3 3 0 0 0 3-3V6a2 2 0 0 0-2-2z" stroke="currentColor" stroke-width="2" fill="none" stroke-linecap="round" stroke-linejoin="round"/>
  <path d="M15 4a3 3 0 0 1 3 3v1a3 3 0 0 1 2 3 3 3 0 0 1-1 5v1a3 3 0 0 1-3 3 3 3 0 0 1-3-3V6a2 2 0 0 1 2-2z" stroke="currentColor" stroke-width="2" fill="none" stroke-linecap="round" stroke-linejoin="round"/>
</symbol>

<symbol id="icon-bot" viewBox="0 0 24 24">
  <rect x="4" y="9" width="16" height="11" rx="2" stroke="currentColor" stroke-width="2" fill="none"/>
  <path d="M12 2v4M9 2h6" stroke="currentColor" stroke-width="2" fill="none" stroke-linecap="round"/>
  <circle cx="9" cy="14.5" r="1.3" fill="currentColor" stroke="none"/>
  <circle cx="15" cy="14.5" r="1.3" fill="currentColor" stroke="none"/>
  <path d="M2 13h2M20 13h2" stroke="currentColor" stroke-width="2" fill="none" stroke-linecap="round"/>
</symbol>

<symbol id="icon-message-square" viewBox="0 0 24 24">
  <path d="M4 4h16v12H9l-5 4V4z" stroke="currentColor" stroke-width="2" fill="none" stroke-linecap="round" stroke-linejoin="round"/>
</symbol>

<symbol id="icon-wrench" viewBox="0 0 24 24">
  <path d="M17 3a4 4 0 0 0-4.9 4.9L4 16v4h4l8.1-8.1A4 4 0 0 0 21 7l-3 3-2-2 3-3z" stroke="currentColor" stroke-width="2" fill="none" stroke-linecap="round" stroke-linejoin="round"/>
</symbol>

<symbol id="icon-settings" viewBox="0 0 24 24">
  <circle cx="12" cy="12" r="3.2" stroke="currentColor" stroke-width="2" fill="none"/>
  <path d="M12 3v3M12 18v3M21 12h-3M6 12H3M18.4 5.6l-2.1 2.1M7.7 16.3l-2.1 2.1M18.4 18.4l-2.1-2.1M7.7 7.7 5.6 5.6" stroke="currentColor" stroke-width="2" fill="none" stroke-linecap="round"/>
</symbol>

<symbol id="icon-mic" viewBox="0 0 24 24">
  <rect x="9" y="2" width="6" height="12" rx="3" stroke="currentColor" stroke-width="2" fill="none"/>
  <path d="M5 11a7 7 0 0 0 14 0M12 18v4M9 22h6" stroke="currentColor" stroke-width="2" fill="none" stroke-linecap="round"/>
</symbol>

<symbol id="icon-circle-check" viewBox="0 0 24 24">
  <circle cx="12" cy="12" r="9" stroke="currentColor" stroke-width="2" fill="none"/>
  <path d="M8 12.5l2.5 2.5L16 9.5" stroke="currentColor" stroke-width="2" fill="none" stroke-linecap="round" stroke-linejoin="round"/>
</symbol>

<symbol id="icon-circle-x" viewBox="0 0 24 24">
  <circle cx="12" cy="12" r="9" stroke="currentColor" stroke-width="2" fill="none"/>
  <path d="M9.5 9.5l5 5M14.5 9.5l-5 5" stroke="currentColor" stroke-width="2" fill="none" stroke-linecap="round"/>
</symbol>

<symbol id="icon-x" viewBox="0 0 24 24">
  <path d="M5 5l14 14M19 5 5 19" stroke="currentColor" stroke-width="2" fill="none" stroke-linecap="round"/>
</symbol>

<symbol id="icon-triangle-alert" viewBox="0 0 24 24">
  <path d="M12 3 2 20h20L12 3z" stroke="currentColor" stroke-width="2" fill="none" stroke-linecap="round" stroke-linejoin="round"/>
  <path d="M12 9.5v4.5" stroke="currentColor" stroke-width="2" fill="none" stroke-linecap="round"/>
  <circle cx="12" cy="17" r="0.9" fill="currentColor" stroke="none"/>
</symbol>

<symbol id="icon-hard-hat" viewBox="0 0 24 24">
  <path d="M4 16a8 8 0 0 1 16 0z" stroke="currentColor" stroke-width="2" fill="none" stroke-linecap="round" stroke-linejoin="round"/>
  <path d="M2 16h20M12 4v4" stroke="currentColor" stroke-width="2" fill="none" stroke-linecap="round"/>
</symbol>

<symbol id="icon-scale" viewBox="0 0 24 24">
  <path d="M12 3v17M7 20h10" stroke="currentColor" stroke-width="2" fill="none" stroke-linecap="round"/>
  <path d="M12 6 4 8l4 7 4-7-4-2zM12 6l8 2-4 7-4-7 4-2z" stroke="currentColor" stroke-width="2" fill="none" stroke-linecap="round" stroke-linejoin="round"/>
</symbol>

<symbol id="icon-clipboard-list" viewBox="0 0 24 24">
  <rect x="5" y="4" width="14" height="17" rx="2" stroke="currentColor" stroke-width="2" fill="none"/>
  <rect x="9" y="2" width="6" height="4" rx="1" stroke="currentColor" stroke-width="2" fill="none"/>
  <path d="M8 11h8M8 15h8M8 19h5" stroke="currentColor" stroke-width="2" fill="none" stroke-linecap="round"/>
</symbol>

<symbol id="icon-folder" viewBox="0 0 24 24">
  <path d="M3 6a1 1 0 0 1 1-1h5l2 2h9a1 1 0 0 1 1 1v11a1 1 0 0 1-1 1H4a1 1 0 0 1-1-1V6z" stroke="currentColor" stroke-width="2" fill="none" stroke-linecap="round" stroke-linejoin="round"/>
</symbol>

<symbol id="icon-file-text" viewBox="0 0 24 24">
  <path d="M6 2h9l5 5v15H6V2z" stroke="currentColor" stroke-width="2" fill="none" stroke-linecap="round" stroke-linejoin="round"/>
  <path d="M14 2v5h5M9 12h6M9 16h6" stroke="currentColor" stroke-width="2" fill="none" stroke-linecap="round"/>
</symbol>

<symbol id="icon-search" viewBox="0 0 24 24">
  <circle cx="10.5" cy="10.5" r="7" stroke="currentColor" stroke-width="2" fill="none"/>
  <path d="M20.5 20.5 16 16" stroke="currentColor" stroke-width="2" fill="none" stroke-linecap="round"/>
</symbol>

<symbol id="icon-monitor" viewBox="0 0 24 24">
  <rect x="2" y="4" width="20" height="13" rx="2" stroke="currentColor" stroke-width="2" fill="none"/>
  <path d="M8 21h8M12 17v4" stroke="currentColor" stroke-width="2" fill="none" stroke-linecap="round"/>
</symbol>

<symbol id="icon-inbox" viewBox="0 0 24 24">
  <path d="M3 12h5l2 3h4l2-3h5" stroke="currentColor" stroke-width="2" fill="none" stroke-linecap="round" stroke-linejoin="round"/>
  <path d="M5 5h14l2 7v6a2 2 0 0 1-2 2H5a2 2 0 0 1-2-2v-6l2-7z" stroke="currentColor" stroke-width="2" fill="none" stroke-linecap="round" stroke-linejoin="round"/>
</symbol>

<symbol id="icon-chart-column" viewBox="0 0 24 24">
  <path d="M4 20V10M10 20V4M16 20v-7M22 20H2" stroke="currentColor" stroke-width="2" fill="none" stroke-linecap="round" stroke-linejoin="round"/>
</symbol>

<symbol id="icon-trending-up" viewBox="0 0 24 24">
  <path d="M3 17l6-6 4 4 8-8" stroke="currentColor" stroke-width="2" fill="none" stroke-linecap="round" stroke-linejoin="round"/>
  <path d="M15 7h6v6" stroke="currentColor" stroke-width="2" fill="none" stroke-linecap="round" stroke-linejoin="round"/>
</symbol>

<symbol id="icon-stethoscope" viewBox="0 0 24 24">
  <path d="M6 3v6a4 4 0 0 0 8 0V3M6 3H4.5M14 3h1.5" stroke="currentColor" stroke-width="2" fill="none" stroke-linecap="round"/>
  <path d="M10 13v2a5 5 0 0 0 10 0v-1.5" stroke="currentColor" stroke-width="2" fill="none" stroke-linecap="round"/>
  <circle cx="20.5" cy="12.5" r="1.7" stroke="currentColor" stroke-width="2" fill="none"/>
</symbol>

<symbol id="icon-dumbbell" viewBox="0 0 24 24">
  <path d="M6 7v10M18 7v10M2 10v4M22 10v4M6 12h12" stroke="currentColor" stroke-width="2" fill="none" stroke-linecap="round"/>
</symbol>

<symbol id="icon-key-round" viewBox="0 0 24 24">
  <circle cx="8" cy="15" r="5" stroke="currentColor" stroke-width="2" fill="none"/>
  <path d="M11.5 11.5 21 2M17 6l3 3M14 9l2.5 2.5" stroke="currentColor" stroke-width="2" fill="none" stroke-linecap="round"/>
</symbol>

<symbol id="icon-lightbulb" viewBox="0 0 24 24">
  <path d="M9 18h6M10 22h4" stroke="currentColor" stroke-width="2" fill="none" stroke-linecap="round"/>
  <path d="M12 2a7 7 0 0 0-4 12.7c.6.5 1 1.3 1 2.3h6c0-1 .4-1.8 1-2.3A7 7 0 0 0 12 2z" stroke="currentColor" stroke-width="2" fill="none" stroke-linecap="round" stroke-linejoin="round"/>
</symbol>

<symbol id="icon-radar" viewBox="0 0 24 24">
  <path d="M12 12 20 8" stroke="currentColor" stroke-width="2" fill="none" stroke-linecap="round"/>
  <path d="M12 3a9 9 0 1 0 9 9" stroke="currentColor" stroke-width="2" fill="none" stroke-linecap="round"/>
  <path d="M12 7a5 5 0 1 0 5 5" stroke="currentColor" stroke-width="2" fill="none" stroke-linecap="round"/>
  <circle cx="12" cy="12" r="1.4" fill="currentColor" stroke="none"/>
</symbol>

<symbol id="icon-package" viewBox="0 0 24 24">
  <path d="M3 8l9-5 9 5-9 5-9-5z" stroke="currentColor" stroke-width="2" fill="none" stroke-linecap="round" stroke-linejoin="round"/>
  <path d="M3 8v9l9 5 9-5V8M12 13v9" stroke="currentColor" stroke-width="2" fill="none" stroke-linecap="round" stroke-linejoin="round"/>
</symbol>

<symbol id="icon-heart" viewBox="0 0 24 24">
  <path d="M12 21s-7.5-4.7-10-9.3C.3 8 2 4 6 4c2.4 0 4 1.4 6 4 2-2.6 3.6-4 6-4 4 0 5.7 4 4 7.7-2.5 4.6-10 9.3-10 9.3z" stroke="currentColor" stroke-width="2" fill="none" stroke-linecap="round" stroke-linejoin="round"/>
</symbol>

<symbol id="icon-heart-pulse" viewBox="0 0 24 24">
  <path d="M12 21s-7.5-4.7-10-9.3C.3 8 2 4 6 4c2.4 0 4 1.4 6 4 2-2.6 3.6-4 6-4 4 0 5.7 4 4 7.7-2.5 4.6-10 9.3-10 9.3z" stroke="currentColor" stroke-width="2" fill="none" stroke-linecap="round" stroke-linejoin="round"/>
  <path d="M4 12h3l2-4 3 7 2-3h6" stroke="currentColor" stroke-width="1.6" fill="none" stroke-linecap="round" stroke-linejoin="round"/>
</symbol>

<symbol id="icon-building-2" viewBox="0 0 24 24">
  <rect x="3" y="9" width="8" height="12" stroke="currentColor" stroke-width="2" fill="none"/>
  <rect x="11" y="3" width="10" height="18" stroke="currentColor" stroke-width="2" fill="none"/>
  <path d="M5.5 12h1.5M5.5 15h1.5M5.5 18h1.5M14 7h1.5M17.5 7h1.5M14 11h1.5M17.5 11h1.5M14 15h1.5M17.5 15h1.5" stroke="currentColor" stroke-width="1.6" fill="none" stroke-linecap="round"/>
</symbol>

<symbol id="icon-sun-moon" viewBox="0 0 24 24">
  <path d="M12 3v2M12 19v2M4.2 4.2l1.4 1.4M18.4 18.4l1.4 1.4M3 12h2M19 12h2M4.2 19.8l1.4-1.4M18.4 5.6l1.4-1.4" stroke="currentColor" stroke-width="2" fill="none" stroke-linecap="round"/>
  <path d="M16.5 12A4.5 4.5 0 0 1 9 15.5 4.5 4.5 0 1 0 16.5 8a4.5 4.5 0 0 1 0 4z" stroke="currentColor" stroke-width="2" fill="none" stroke-linecap="round" stroke-linejoin="round"/>
</symbol>

<symbol id="icon-save" viewBox="0 0 24 24">
  <path d="M4 4h13l3 3v13H4V4z" stroke="currentColor" stroke-width="2" fill="none" stroke-linecap="round" stroke-linejoin="round"/>
  <path d="M8 4v6h8V4M7 14h10v6H7z" stroke="currentColor" stroke-width="2" fill="none" stroke-linecap="round" stroke-linejoin="round"/>
</symbol>

<symbol id="icon-trash-2" viewBox="0 0 24 24">
  <path d="M4 7h16M9 7V4h6v3M6 7l1 13a1 1 0 0 0 1 1h8a1 1 0 0 0 1-1l1-13" stroke="currentColor" stroke-width="2" fill="none" stroke-linecap="round" stroke-linejoin="round"/>
  <path d="M10 11v6M14 11v6" stroke="currentColor" stroke-width="2" fill="none" stroke-linecap="round"/>
</symbol>

<symbol id="icon-briefcase" viewBox="0 0 24 24">
  <rect x="2" y="7" width="20" height="13" rx="2" stroke="currentColor" stroke-width="2" fill="none"/>
  <path d="M8 7V5a2 2 0 0 1 2-2h4a2 2 0 0 1 2 2v2M2 12h20" stroke="currentColor" stroke-width="2" fill="none" stroke-linecap="round"/>
</symbol>

<symbol id="icon-candlestick-chart" viewBox="0 0 24 24">
  <path d="M6 3v4M6 15v6M4 7h4v8H4zM12 1v3M12 8v14M10 4h4v4h-4zM18 5v3M18 12v9M16 8h4v4h-4z" stroke="currentColor" stroke-width="2" fill="none" stroke-linecap="round" stroke-linejoin="round"/>
</symbol>

<symbol id="icon-book-open" viewBox="0 0 24 24">
  <path d="M12 5c-1.5-1.3-3.6-2-6.5-2C3.6 3 2 3.4 2 3.4v15S3.6 18 5.5 18c2.9 0 5 .7 6.5 2M12 5c1.5-1.3 3.6-2 6.5-2 1.9 0 3.5.4 3.5.4v15S20.4 18 18.5 18c-2.9 0-5 .7-6.5 2M12 5v14" stroke="currentColor" stroke-width="2" fill="none" stroke-linecap="round" stroke-linejoin="round"/>
</symbol>

<symbol id="icon-globe" viewBox="0 0 24 24">
  <circle cx="12" cy="12" r="9" stroke="currentColor" stroke-width="2" fill="none"/>
  <path d="M3 12h18M12 3a15 15 0 0 1 0 18M12 3a15 15 0 0 0 0 18" stroke="currentColor" stroke-width="2" fill="none" stroke-linecap="round"/>
</symbol>

<symbol id="icon-image" viewBox="0 0 24 24">
  <rect x="3" y="4" width="18" height="16" rx="2" stroke="currentColor" stroke-width="2" fill="none"/>
  <circle cx="9" cy="10" r="1.7" stroke="currentColor" stroke-width="2" fill="none"/>
  <path d="M4.5 18 9.5 13l3 3 4-5 3.5 4.5" stroke="currentColor" stroke-width="2" fill="none" stroke-linecap="round" stroke-linejoin="round"/>
</symbol>

<symbol id="icon-palette" viewBox="0 0 24 24">
  <path d="M12 3a9 9 0 1 0 0 18c1.4 0 2-1 2-2s-.5-1.4-1-2c-.6-.7-.2-2 1-2h2.5A5.5 5.5 0 0 0 21 11.5C21 6.8 17 3 12 3z" stroke="currentColor" stroke-width="2" fill="none" stroke-linecap="round" stroke-linejoin="round"/>
  <circle cx="7.5" cy="10.5" r="1.2" fill="currentColor" stroke="none"/>
  <circle cx="11.5" cy="7.5" r="1.2" fill="currentColor" stroke="none"/>
  <circle cx="16" cy="9.5" r="1.2" fill="currentColor" stroke="none"/>
</symbol>

<symbol id="icon-headphones" viewBox="0 0 24 24">
  <path d="M3 14v-2a9 9 0 0 1 18 0v2" stroke="currentColor" stroke-width="2" fill="none" stroke-linecap="round"/>
  <rect x="2" y="14" width="5" height="7" rx="1.5" stroke="currentColor" stroke-width="2" fill="none"/>
  <rect x="17" y="14" width="5" height="7" rx="1.5" stroke="currentColor" stroke-width="2" fill="none"/>
</symbol>

<symbol id="icon-plug" viewBox="0 0 24 24">
  <path d="M9 3v6M15 3v6M6 9h12v3a6 6 0 0 1-12 0V9zM12 18v3" stroke="currentColor" stroke-width="2" fill="none" stroke-linecap="round" stroke-linejoin="round"/>
</symbol>

<symbol id="icon-refresh-cw" viewBox="0 0 24 24">
  <path d="M20 11a8 8 0 0 0-14.6-4.3M4 13a8 8 0 0 0 14.6 4.3" stroke="currentColor" stroke-width="2" fill="none" stroke-linecap="round"/>
  <path d="M20 4v4h-4M4 20v-4h4" stroke="currentColor" stroke-width="2" fill="none" stroke-linecap="round" stroke-linejoin="round"/>
</symbol>

<symbol id="icon-plus" viewBox="0 0 24 24">
  <path d="M12 4v16M4 12h16" stroke="currentColor" stroke-width="2" fill="none" stroke-linecap="round"/>
</symbol>

<symbol id="icon-rocket" viewBox="0 0 24 24">
  <path d="M12 2c3 1.5 5 5 5 9 0 3-1 5-2 6l-3 3-3-3c-1-1-2-3-2-6 0-4 2-7.5 5-9z" stroke="currentColor" stroke-width="2" fill="none" stroke-linecap="round" stroke-linejoin="round"/>
  <circle cx="12" cy="9" r="1.7" stroke="currentColor" stroke-width="2" fill="none"/>
  <path d="M8 16l-3 5M16 16l3 5M9 20h6" stroke="currentColor" stroke-width="2" fill="none" stroke-linecap="round"/>
</symbol>

<symbol id="icon-pin" viewBox="0 0 24 24">
  <path d="M12 22s7-6.8 7-12.5A7 7 0 0 0 5 9.5C5 15.2 12 22 12 22z" stroke="currentColor" stroke-width="2" fill="none" stroke-linecap="round" stroke-linejoin="round"/>
  <circle cx="12" cy="9.5" r="2.3" stroke="currentColor" stroke-width="2" fill="none"/>
</symbol>

<symbol id="icon-repeat" viewBox="0 0 24 24">
  <path d="M17 2l4 4-4 4" stroke="currentColor" stroke-width="2" fill="none" stroke-linecap="round" stroke-linejoin="round"/>
  <path d="M3 11V9a4 4 0 0 1 4-4h14M7 22l-4-4 4-4" stroke="currentColor" stroke-width="2" fill="none" stroke-linecap="round" stroke-linejoin="round"/>
  <path d="M21 13v2a4 4 0 0 1-4 4H3" stroke="currentColor" stroke-width="2" fill="none" stroke-linecap="round" stroke-linejoin="round"/>
</symbol>

<symbol id="icon-puzzle" viewBox="0 0 24 24">
  <path d="M9 3h4v2.2a2 2 0 1 0 2 3.8v0H21v4h-2.2a2 2 0 1 0 0 4H21v4h-4a2 2 0 1 0-4 0H9v-4a2 2 0 1 0-3.8-1H3V12h2.2a2 2 0 1 0 0-4H3V4h4v2.2A2 2 0 1 0 9 5.2V3z" stroke="currentColor" stroke-width="1.6" fill="none" stroke-linecap="round" stroke-linejoin="round"/>
</symbol>

<symbol id="icon-archive" viewBox="0 0 24 24">
  <rect x="2" y="3" width="20" height="5" rx="1" stroke="currentColor" stroke-width="2" fill="none"/>
  <path d="M4 8v11a2 2 0 0 0 2 2h12a2 2 0 0 0 2-2V8M10 13h4" stroke="currentColor" stroke-width="2" fill="none" stroke-linecap="round"/>
</symbol>

<symbol id="icon-loader" viewBox="0 0 24 24">
  <path d="M12 2v4M12 18v4M4.9 4.9l2.8 2.8M16.3 16.3l2.8 2.8M2 12h4M18 12h4M4.9 19.1l2.8-2.8M16.3 7.7l2.8-2.8" stroke="currentColor" stroke-width="2" fill="none" stroke-linecap="round" opacity="0.85"/>
</symbol>

<symbol id="icon-circle" viewBox="0 0 24 24">
  <circle cx="12" cy="12" r="9" stroke="currentColor" stroke-width="2" fill="none"/>
</symbol>

<symbol id="icon-command" viewBox="0 0 24 24">
  <path d="M8 4.5A2.5 2.5 0 1 0 5.5 7H8v9H5.5A2.5 2.5 0 1 0 8 18.5V16h8v2.5A2.5 2.5 0 1 0 18.5 16H16V7h2.5A2.5 2.5 0 1 0 16 4.5V7H8V4.5z" stroke="currentColor" stroke-width="1.7" fill="none" stroke-linecap="round" stroke-linejoin="round"/>
</symbol>

<symbol id="icon-compass" viewBox="0 0 24 24">
  <circle cx="12" cy="12" r="9" stroke="currentColor" stroke-width="2" fill="none"/>
  <path d="M15 9l-2 6-6 2 2-6 6-2z" stroke="currentColor" stroke-width="2" fill="none" stroke-linecap="round" stroke-linejoin="round"/>
</symbol>

<symbol id="icon-home" viewBox="0 0 24 24">
  <path d="M4 11l8-7 8 7v9a1 1 0 0 1-1 1h-4v-6H9v6H5a1 1 0 0 1-1-1v-9z" stroke="currentColor" stroke-width="2" fill="none" stroke-linecap="round" stroke-linejoin="round"/>
</symbol>

<symbol id="icon-play" viewBox="0 0 24 24">
  <path d="M6 4l14 8-14 8V4z" stroke="currentColor" stroke-width="2" fill="none" stroke-linecap="round" stroke-linejoin="round"/>
</symbol>

<symbol id="icon-calendar" viewBox="0 0 24 24">
  <rect x="3" y="5" width="18" height="16" rx="2" stroke="currentColor" stroke-width="2" fill="none"/>
  <path d="M3 9h18M8 3v4M16 3v4" stroke="currentColor" stroke-width="2" fill="none" stroke-linecap="round"/>
</symbol>

<symbol id="icon-users" viewBox="0 0 24 24">
  <circle cx="9" cy="8" r="3.2" stroke="currentColor" stroke-width="2" fill="none"/>
  <path d="M3 20c0-3.3 2.7-6 6-6s6 2.7 6 6" stroke="currentColor" stroke-width="2" fill="none" stroke-linecap="round"/>
  <path d="M16 4.5a3.2 3.2 0 0 1 0 6.4M20.5 20c0-2.8-2-5.1-4.7-5.7" stroke="currentColor" stroke-width="2" fill="none" stroke-linecap="round"/>
</symbol>

<symbol id="icon-target" viewBox="0 0 24 24">
  <circle cx="12" cy="12" r="9" stroke="currentColor" stroke-width="2" fill="none"/>
  <circle cx="12" cy="12" r="5" stroke="currentColor" stroke-width="2" fill="none"/>
  <circle cx="12" cy="12" r="1" stroke="currentColor" stroke-width="2" fill="currentColor"/>
</symbol>

<symbol id="icon-copy" viewBox="0 0 24 24">
  <rect x="9" y="9" width="12" height="12" rx="2" stroke="currentColor" stroke-width="2" fill="none"/>
  <path d="M5 15V5a2 2 0 0 1 2-2h10" stroke="currentColor" stroke-width="2" fill="none" stroke-linecap="round"/>
</symbol>

<symbol id="icon-maximize" viewBox="0 0 24 24">
  <path d="M8 3H5a2 2 0 0 0-2 2v3M16 3h3a2 2 0 0 1 2 2v3M21 16v3a2 2 0 0 1-2 2h-3M8 21H5a2 2 0 0 1-2-2v-3" stroke="currentColor" stroke-width="2" fill="none" stroke-linecap="round" stroke-linejoin="round"/>
</symbol>

<symbol id="icon-bell" viewBox="0 0 24 24">
  <path d="M6 9a6 6 0 0 1 12 0c0 5 2 6 2 6H4s2-1 2-6" stroke="currentColor" stroke-width="2" fill="none" stroke-linecap="round" stroke-linejoin="round"/>
  <path d="M10 19a2 2 0 0 0 4 0" stroke="currentColor" stroke-width="2" fill="none" stroke-linecap="round"/>
</symbol>

<symbol id="icon-code" viewBox="0 0 24 24">
  <path d="M9 6l-5 6 5 6M15 6l5 6-5 6" stroke="currentColor" stroke-width="2" fill="none" stroke-linecap="round" stroke-linejoin="round"/>
</symbol>

<symbol id="icon-award" viewBox="0 0 24 24">
  <circle cx="12" cy="8" r="6" stroke="currentColor" stroke-width="2" fill="none"/>
  <path d="M8.5 13.5L7 22l5-3 5 3-1.5-8.5" stroke="currentColor" stroke-width="2" fill="none" stroke-linecap="round" stroke-linejoin="round"/>
</symbol>

<symbol id="icon-eye" viewBox="0 0 24 24">
  <path d="M2 12s3.5-7 10-7 10 7 10 7-3.5 7-10 7-10-7-10-7z" stroke="currentColor" stroke-width="2" fill="none" stroke-linecap="round" stroke-linejoin="round"/>
  <circle cx="12" cy="12" r="3" stroke="currentColor" stroke-width="2" fill="none"/>
</symbol>

<symbol id="icon-dollar-sign" viewBox="0 0 24 24">
  <path d="M12 2v20M17 6.5c0-1.9-2.2-3.5-5-3.5s-5 1.6-5 3.5 2.2 3 5 3.5c2.8.5 5 1.6 5 3.5s-2.2 3.5-5 3.5-5-1.6-5-3.5" stroke="currentColor" stroke-width="2" fill="none" stroke-linecap="round" stroke-linejoin="round"/>
</symbol>

<symbol id="icon-gem" viewBox="0 0 24 24">
  <path d="M6 3h12l4 6-10 12L2 9z" stroke="currentColor" stroke-width="2" fill="none" stroke-linecap="round" stroke-linejoin="round"/>
  <path d="M2 9h20M9 3l3 6-3 12M15 3l-3 6 3 12" stroke="currentColor" stroke-width="2" fill="none" stroke-linecap="round" stroke-linejoin="round"/>
</symbol>

</defs>
</svg>
